PathFileType	4	(X/Y/Z)	0_coords_data.trc
DataRate	CameraRate	NumFrames	NumMarkers	Units	OrigDataRate	OrigDataStartFrame	OrigNumFrames
30.0	30.0	7	21	m	30.0	31	72
Frame#	Time	THUMB_TIP	THUMB_IP	THUMB_MCP	THUMB_CMC	INDEX_TIP	INDEX_DIP	INDEX_PIP	INDEX_MCP	MIDDLE_TIP	MIDDLE_DIP	MIDDLE_PIP	MIDDLE_MCP	RING_TIP	RING_DIP	RING_PIP	RING_MCP	PINKY_TIP	PINKY_DIP	PINKY_PIP	PINKY_MCP	WRIST
X1	Y1	Z1	X2	Y2	Z2	X3	Y3	Z3	X4	Y4	Z4	X5	Y5	Z5	X6	Y6	Z6	X7	Y7	Z7	X8	Y8	Z8	X9	Y9	Z9	X10	Y10	Z10	X11	Y11	Z11	X12	Y12	Z12	X13	Y13	Z13	X14	Y14	Z14	X15	Y15	Z15	X16	Y16	Z16	X17	Y17	Z17	X18	Y18	Z18	X19	Y19	Z19	X20	Y20	Z20	X21	Y21	Z21
30	1.0	-0.020992300033569337	-0.06255020141601562	1.0058699951171874	-0.01721739959716797	-0.043688098907470704	0.9890579833984375	-0.032029598236083985	-0.02169289970397949	0.9727130126953125	-0.028347900390625	0.01193400001525879	0.9667360229492188	-0.007179679870605468	-0.1299320068359375	0.934197998046875	-0.010177900314331054	-0.10683499908447265	0.9343610229492187	-0.013090499877929688	-0.08307089996337891	0.9342379760742188	-0.01417140007019043	-0.03887760162353516	0.9272119750976563	-0.003490180015563965	-0.043257301330566406	0.9682449951171875	0.000700347006320953	-0.06635099792480469	0.9731519775390625	0.010530599594116211	-0.07657779693603516	0.9485919799804687	0.01091100025177002	-0.034780998229980466	0.9276270141601562	0.010743399620056153	-0.038110599517822266	0.9784210205078125	0.016972700119018556	-0.056010299682617185	0.9813690185546875	0.03147970008850098	-0.06561620330810547	0.9612670288085937	0.03061359977722168	-0.026282400131225587	0.9407219848632813	0.08356739807128906	-0.07626360321044921	0.9533330078125	0.07164199829101563	-0.05832479858398437	0.95564501953125	0.05948659896850586	-0.04204499816894531	0.9557880249023437	0.03956969833374024	-0.016474599838256835	0.9587520141601562	-0.01136299991607666	0.04898880004882813	0.9642000122070312
31	1.0333333333333334	-0.030495100021362305	-0.06353519821166992	1.006	-0.023659200668334962	-0.044414299011230465	0.9901690063476563	-0.03584149932861328	-0.021233200073242187	0.9729760131835937	-0.029907800674438476	0.012193099975585937	0.9668049926757812	-0.00949800968170166	-0.1300260009765625	0.9314559936523438	-0.012462699890136719	-0.10691500091552734	0.932176025390625	-0.015159899711608887	-0.0828479995727539	0.9326329956054688	-0.016050100326538086	-0.03887799835205078	0.9282139892578125	-0.008909500122070313	-0.06503730010986328	0.9931170043945312	0.000927075028419494	-0.07469869995117187	0.9773579711914062	0.010222399711608886	-0.07713890075683594	0.9490700073242188	0.009010519981384277	-0.03493949890136719	0.9290089721679687	0.011541199684143067	-0.04183470153808594	0.9789450073242187	0.019427099227905274	-0.060863399505615236	0.9809210205078125	0.03339849853515625	-0.06662879943847656	0.959989013671875	0.028791500091552735	-0.027141599655151366	0.9419340209960938	0.08476309967041015	-0.07487359619140625	0.9534819946289063	0.07269580078125	-0.05723040008544922	0.955708984375	0.06017509841918945	-0.04102840042114258	0.9553170166015625	0.03935960006713867	-0.01603860092163086	0.958593017578125	-0.012436300277709962	0.04947140121459961	0.96510302734375
32	1.0666666666666667	-0.04014680099487305	-0.06424579620361329	1.0052999877929687	-0.030288000106811524	-0.04546979904174805	0.990083984375	-0.03979909896850586	-0.020687000274658203	0.9724400024414063	-0.03164469909667969	0.012874799728393555	0.9671840209960938	-0.013623900413513183	-0.12952699279785157	0.9327479858398438	-0.01598740005493164	-0.10636399841308594	0.932801025390625	-0.018163700103759766	-0.08203299713134765	0.9327670288085937	-0.017983100891113282	-0.03867229843139648	0.9283699951171875	-0.007339109897613525	-0.07901850128173828	0.995927978515625	0.00265922999382019	-0.08358439636230469	0.9756129760742187	0.010111900329589843	-0.07759510040283203	0.9474669799804688	0.007019299983978271	-0.03492440032958984	0.9300859985351563	0.0074378600120544435	-0.05547069931030273	0.9941790161132813	0.023150800704956054	-0.06738590240478516	0.97972998046875	0.035635700225830076	-0.06728379821777344	0.9563359985351563	0.027316499710083007	-0.028089599609375	0.9431300048828125	0.08641280364990235	-0.07286039733886719	0.9530479736328125	0.07386309814453125	-0.05569449996948242	0.9549180297851563	0.06082899856567383	-0.039854801177978516	0.9549630126953125	0.039249000549316404	-0.016037799835205077	0.9581669921875	-0.013205900192260742	0.04969369888305664	0.9656640014648438
33	1.1	-0.04626860046386719	-0.06515670013427734	1.0043800048828124	-0.03503049850463867	-0.04598949813842773	0.9890560302734375	-0.04222100067138672	-0.020657100677490235	0.9725989990234375	-0.03270270156860351	0.013534000396728516	0.966708984375	-0.01640730094909668	-0.12883799743652344	0.9332449951171875	-0.01831410026550293	-0.10575599670410156	0.932947998046875	-0.02020949935913086	-0.0812511978149414	0.9327139892578125	-0.01948010063171387	-0.037831501007080076	0.9283790283203125	-0.003664639949798584	-0.0908677978515625	0.9930850219726562	0.005037360191345215	-0.08988150024414063	0.9715269775390625	0.01097000026702881	-0.07799829864501953	0.944427978515625	0.005706459999084473	-0.03473509979248047	0.9304849853515625	0.0148100004196167	-0.06670800018310546	0.9944769897460938	0.02685059928894043	-0.07245880126953125	0.976781005859375	0.03737289810180664	-0.06732640075683594	0.9519619750976562	0.026317800521850586	-0.028144399642944337	0.942823974609375	0.08742739868164062	-0.07143569946289062	0.9516959838867187	0.07456109619140625	-0.05472829818725586	0.9537999877929687	0.06124789810180664	-0.03931589889526367	0.9542080078125	0.0390884017944336	-0.015921099662780762	0.9574080200195313	-0.014284600257873535	0.050425098419189456	0.9673889770507812
34	1.1333333333333333	-0.05109109878540039	-0.06656700134277344	1.0013099975585937	-0.03857429885864258	-0.04718489837646484	0.9877269897460937	-0.04376490020751953	-0.020718000411987306	0.9727440185546875	-0.03373899841308594	0.013955300331115722	0.9674990234375	-0.017259000778198242	-0.12805000305175782	0.934	-0.019281499862670897	-0.10493800354003906	0.9336740112304688	-0.02100189971923828	-0.08043229675292969	0.9331110229492188	-0.02001840019226074	-0.03721789932250977	0.92889599609375	3.0697600916028005e-05	-0.09828050231933594	0.9899429931640625	0.0075319199562072755	-0.093127197265625	0.9682529907226562	0.012155400276184083	-0.07783429718017579	0.942594970703125	0.005185780048370362	-0.03398310089111328	0.93077001953125	0.01899959945678711	-0.07476260375976562	0.9932310180664062	0.03042219924926758	-0.07656420135498047	0.9740650024414063	0.03879209899902344	-0.06675830078125	0.949198974609375	0.025768299102783204	-0.028309799194335936	0.9433670043945312	0.08829979705810546	-0.07002739715576171	0.9505570068359375	0.07530449676513672	-0.05358240127563477	0.95277001953125	0.0618031005859375	-0.03832040023803711	0.9535020141601562	0.03930519866943359	-0.015453900337219238	0.957135986328125	-0.014733400344848633	0.05081629943847656	0.968301025390625
35	1.1666666666666667	-0.05238959884643555	-0.06716380310058594	1.0010900268554688	-0.03977159881591797	-0.04743830108642578	0.9878510131835937	-0.04488850021362305	-0.020084299087524415	0.9733489990234375	-0.03380390167236328	0.01363860034942627	0.9684719848632812	-0.018046300888061525	-0.12726499938964844	0.9354349975585937	-0.01989039993286133	-0.10415299987792968	0.9348289794921875	-0.021579599380493163	-0.07962539672851562	0.9339869995117187	-0.02026409912109375	-0.03668140029907226	0.9293060302734375	0.003962680101394654	-0.10448899841308594	0.9861380004882813	0.009872130393981934	-0.09553209686279297	0.9654990234375	0.012938199996948242	-0.07744609832763671	0.941281005859375	0.004620389938354492	-0.03378889846801758	0.9320670166015625	0.02278759956359863	-0.08113749694824218	0.991302001953125	0.03360269927978515	-0.0790281982421875	0.9716669921875	0.03988819885253906	-0.06582369995117188	0.9478289794921875	0.02561090087890625	-0.027985799789428712	0.94360302734375	0.08888800048828124	-0.06929889678955078	0.9510330200195313	0.07589299774169922	-0.05282160186767578	0.9530230102539062	0.06232580184936523	-0.037676700592041014	0.9535009765625	0.03940629959106445	-0.014594799995422363	0.9571810302734375	-0.015002699851989746	0.05128070068359375	0.9697269897460937
36	1.2	-0.05309159851074219	-0.06846849822998047	1.0006699829101562	-0.04033950042724609	-0.04799380111694336	0.9885449829101562	-0.045145500183105466	-0.02068589973449707	0.9747050170898437	-0.03450849914550781	0.013933799743652343	0.9705419921875	-0.01776409912109375	-0.1268190002441406	0.936291015625	-0.019808000564575195	-0.1036520004272461	0.935781005859375	-0.021618099212646485	-0.07902079772949219	0.935218017578125	-0.020624799728393553	-0.03630789947509765	0.9308560180664063	0.006758430004119873	-0.10877200317382812	0.9836610107421875	0.011602700233459473	-0.09722579956054687	0.963698974609375	0.013515399932861329	-0.07710980224609375	0.9408900146484375	0.004663660049438477	-0.0335989990234375	0.9328060302734374	0.02642020034790039	-0.08594280242919922	0.9894650268554688	0.03584230041503906	-0.0809583969116211	0.970344970703125	0.04072209930419922	-0.0654552001953125	0.94689697265625	0.025330699920654298	-0.0279143009185791	0.9448930053710938	0.08821109771728515	-0.06971990203857421	0.9531610107421875	0.07556529998779297	-0.052927398681640626	0.9546259765625	0.06219060134887695	-0.03737699890136719	0.9546939697265625	0.039345298767089844	-0.013965299606323242	0.957822998046875	-0.015659299850463868	0.0511151008605957	0.9717999877929687
